<svg version="1.1" id="Capa_1" xmlns="http://www.w3.org/2000/svg" xmlns:xlink="http://www.w3.org/1999/xlink" x="0px" y="0px" viewBox="0 0 512.001 512.001" style="enable-background:new 0 0 512.001 512.001;" xml:space="preserve"><rect x="83.043" y="34.08" style="fill:#BABABA;" width="35.092" height="56.179"/><rect x="83.043" y="34.08" style="fill:#989DA0;" width="17.74" height="56.179"/><path style="fill:#8DD83D;" d="M37.853,17.573c0.002,9.69,7.859,17.544,17.55,17.541l90.365-0.021 c9.689-0.002,17.545-7.86,17.544-17.551C163.309,7.853,155.45-0.001,145.761,0L55.396,0.023 C45.706,0.024,37.851,7.882,37.853,17.573z"/><path style="fill:#7FC928;" d="M145.768,17.958l-90.365,0.021C48.825,17.98,43.1,14.358,40.095,9.001 c-6.546,11.665,1.911,26.116,15.307,26.113l90.365-0.021c9.689-0.002,17.545-7.86,17.544-17.551 c-0.001-3.113-0.82-6.031-2.243-8.564C158.065,14.333,152.342,17.957,145.768,17.958z"/><path style="fill:#EAE9E8;" d="M171.135,486.202V114.991c0-14.247-11.549-25.798-25.799-25.798c-10.391,0-79.099,0-89.489,0 c-14.25,0-25.799,11.551-25.799,25.798v371.211C30.048,500.45,41.596,512,55.847,512c10.646,0,79.107,0,89.489,0 C159.585,512.001,171.135,500.451,171.135,486.202z"/><path style="fill:#DDDDDD;" d="M50.737,486.202V114.991c0-14.247,11.548-25.798,25.798-25.798H55.847 c-14.25,0-25.799,11.551-25.799,25.798v371.211C30.048,500.45,41.596,512,55.847,512h20.688 C62.285,512.001,50.737,500.451,50.737,486.202z"/><rect x="30.051" y="231.026" style="fill:#8DD83D;" width="141.083" height="123.757"/><rect x="30.051" y="231.026" style="fill:#7FC928;" width="20.688" height="123.757"/><path style="fill:#BABABA;" d="M133.477,155.28c0,6.856-5.558,12.413-12.413,12.413H80.101c-6.855,0-12.413-5.557-12.413-12.413 v-13.074c0-6.856,5.558-12.413,12.413-12.413h40.964c6.855,0,12.413,5.557,12.413,12.413v13.074H133.477z"/><path style="fill:#989DA0;" d="M88.377,155.28v-13.074c0-6.856,5.558-12.413,12.413-12.413H80.101 c-6.855,0-12.413,5.557-12.413,12.413v13.074c0,6.856,5.558,12.413,12.413,12.413h20.688 C93.934,167.693,88.377,162.136,88.377,155.28z"/><rect x="224.137" y="34.08" style="fill:#BABABA;" width="35.092" height="56.179"/><rect x="224.137" y="34.08" style="fill:#989DA0;" width="17.74" height="56.179"/><path style="fill:#3BBC56;" d="M178.939,17.573c0.002,9.69,7.859,17.544,17.55,17.541l90.365-0.021 c9.689-0.002,17.545-7.86,17.544-17.551C304.395,7.853,296.536-0.001,286.847,0l-90.365,0.022 C186.792,0.024,178.937,7.882,178.939,17.573z"/><path style="fill:#149334;" d="M286.854,17.958l-90.365,0.021c-6.578,0.001-12.303-3.621-15.307-8.978 c-6.546,11.665,1.911,26.116,15.307,26.113l90.365-0.021c13.4-0.003,21.844-14.461,15.301-26.115 C299.151,14.333,293.43,17.957,286.854,17.958z"/><path style="fill:#EAE9E8;" d="M312.222,486.202V114.991c0-14.247-11.549-25.798-25.799-25.798c-8.249,0-81.086,0-89.489,0 c-14.25,0-25.798,11.551-25.798,25.798v371.211c0,14.248,11.548,25.798,25.798,25.798h34.052h21.384h34.053 C300.673,512.001,312.222,500.451,312.222,486.202z"/><path style="fill:#DDDDDD;" d="M191.823,486.202V114.991c0-14.247,11.548-25.798,25.798-25.798h-20.688 c-14.25,0-25.798,11.551-25.798,25.798v371.211c0,14.248,11.548,25.798,25.798,25.798h20.688 C203.371,512.001,191.823,500.451,191.823,486.202z"/><rect x="171.134" y="231.026" style="fill:#3BBC56;" width="141.083" height="123.757"/><rect x="171.134" y="231.026" style="fill:#149334;" width="20.688" height="123.757"/><path style="fill:#BABABA;" d="M274.564,155.28c0,6.856-5.558,12.413-12.413,12.413h-40.964c-6.856,0-12.413-5.557-12.413-12.413 v-13.074c0-6.856,5.557-12.413,12.413-12.413h40.964c6.855,0,12.413,5.557,12.413,12.413V155.28z"/><path style="fill:#989DA0;" d="M229.463,155.28v-13.074c0-6.856,5.557-12.413,12.413-12.413h-20.688 c-6.856,0-12.413,5.557-12.413,12.413v13.074c0,6.856,5.557,12.413,12.413,12.413h20.688 C235.021,167.693,229.463,162.136,229.463,155.28z"/><path style="fill:#585A60;" d="M436.45,294.597H329.066c-9.301,0-16.843,7.542-16.843,16.843v48.078h141.073v-48.078 C453.295,302.139,445.753,294.597,436.45,294.597z"/><path style="fill:#414356;" d="M349.754,294.597h-20.688c-9.301,0-16.843,7.542-16.843,16.843v48.078h20.688v-48.078 C332.911,302.139,340.453,294.597,349.754,294.597z"/><path style="fill:#8DD83D;" d="M481.954,490.745c0,11.741-9.516,21.256-21.256,21.256H304.819c-11.742,0-21.256-9.516-21.256-21.256 V379.742c0-11.741,9.514-21.258,21.256-21.258h155.878c11.741,0,21.256,9.518,21.256,21.258V490.745z"/><path style="fill:#7FC928;" d="M304.252,490.745V379.742c0-11.741,9.514-21.258,21.256-21.258h-20.688 c-11.742,0-21.256,9.518-21.256,21.258v111.003c0,11.741,9.514,21.256,21.256,21.256h20.688 C313.766,512.001,304.252,502.486,304.252,490.745z"/><path style="fill:#3BBC56;" d="M444.52,421.751c0,6.855-5.558,12.413-12.413,12.413h-98.7c-6.856,0-12.413-5.558-12.413-12.413 v-13.075c0-6.856,5.557-12.413,12.413-12.413h98.7c6.855,0,12.413,5.557,12.413,12.413V421.751z"/><path style="fill:#149334;" d="M432.108,415.214h-98.7c-5.841,0-10.728-4.04-12.049-9.475c-0.482,1.982-0.364,1.752-0.364,16.012 c0,6.855,5.557,12.413,12.413,12.413h98.7c6.855,0,12.413-5.558,12.413-12.413v-13.075c0-1.014-0.134-1.994-0.364-2.938 C442.835,411.173,437.949,415.214,432.108,415.214z"/></svg>